<mxfile host="65bd71144e">
    <diagram name="02" id="YMj1xpAl_SfOTKT0soET">
        <mxGraphModel dx="1178" dy="971" grid="1" gridSize="10" guides="1" tooltips="1" connect="1" arrows="1" fold="1" page="1" pageScale="1" pageWidth="1169" pageHeight="827" math="0" shadow="0">
            <root>
                <mxCell id="ML3krrQk0YiTmpszw3Px-0"/>
                <mxCell id="ML3krrQk0YiTmpszw3Px-1" parent="ML3krrQk0YiTmpszw3Px-0"/>
                <mxCell id="ML3krrQk0YiTmpszw3Px-2" value="" style="rounded=0;whiteSpace=wrap;html=1;" parent="ML3krrQk0YiTmpszw3Px-1" vertex="1">
                    <mxGeometry x="50" y="320" width="230" height="160" as="geometry"/>
                </mxCell>
                <mxCell id="ML3krrQk0YiTmpszw3Px-4" value="地図&lt;div&gt;～関係～&lt;/div&gt;" style="text;html=1;align=center;verticalAlign=middle;whiteSpace=wrap;rounded=0;fillColor=#dae8fc;strokeColor=#6c8ebf;" parent="ML3krrQk0YiTmpszw3Px-1" vertex="1">
                    <mxGeometry x="40" y="10" width="160" height="40" as="geometry"/>
                </mxCell>
                <mxCell id="8" value="" style="rounded=0;whiteSpace=wrap;html=1;" vertex="1" parent="ML3krrQk0YiTmpszw3Px-1">
                    <mxGeometry x="400" y="120" width="200" height="360" as="geometry"/>
                </mxCell>
                <mxCell id="9" value="" style="triangle;whiteSpace=wrap;html=1;rotation=-90;" vertex="1" parent="ML3krrQk0YiTmpszw3Px-1">
                    <mxGeometry x="120" y="340" width="110" height="120" as="geometry"/>
                </mxCell>
                <mxCell id="10" value="個人の欲求" style="text;html=1;align=center;verticalAlign=middle;whiteSpace=wrap;rounded=0;fillColor=#d5e8d4;strokeColor=#82b366;" vertex="1" parent="ML3krrQk0YiTmpszw3Px-1">
                    <mxGeometry x="60" y="330" width="70" height="30" as="geometry"/>
                </mxCell>
                <mxCell id="11" value="" style="rounded=0;whiteSpace=wrap;html=1;" vertex="1" parent="ML3krrQk0YiTmpszw3Px-1">
                    <mxGeometry x="50" y="120" width="230" height="160" as="geometry"/>
                </mxCell>
                <mxCell id="12" value="" style="triangle;whiteSpace=wrap;html=1;rotation=-90;" vertex="1" parent="ML3krrQk0YiTmpszw3Px-1">
                    <mxGeometry x="120" y="140" width="110" height="120" as="geometry"/>
                </mxCell>
                <mxCell id="13" value="集団の欲求" style="text;html=1;align=center;verticalAlign=middle;whiteSpace=wrap;rounded=0;fillColor=#d5e8d4;strokeColor=#82b366;" vertex="1" parent="ML3krrQk0YiTmpszw3Px-1">
                    <mxGeometry x="60" y="130" width="70" height="30" as="geometry"/>
                </mxCell>
                <mxCell id="14" value="" style="shape=flexArrow;endArrow=classic;html=1;" edge="1" parent="ML3krrQk0YiTmpszw3Px-1">
                    <mxGeometry width="50" height="50" relative="1" as="geometry">
                        <mxPoint x="300" y="400" as="sourcePoint"/>
                        <mxPoint x="380" y="400" as="targetPoint"/>
                    </mxGeometry>
                </mxCell>
                <mxCell id="15" value="" style="shape=flexArrow;endArrow=classic;html=1;" edge="1" parent="ML3krrQk0YiTmpszw3Px-1">
                    <mxGeometry width="50" height="50" relative="1" as="geometry">
                        <mxPoint x="300" y="199.5" as="sourcePoint"/>
                        <mxPoint x="380" y="199.5" as="targetPoint"/>
                    </mxGeometry>
                </mxCell>
                <mxCell id="16" value="スキルの発揮" style="text;html=1;align=center;verticalAlign=middle;whiteSpace=wrap;rounded=0;fillColor=#d5e8d4;strokeColor=#82b366;" vertex="1" parent="ML3krrQk0YiTmpszw3Px-1">
                    <mxGeometry x="420" y="130" width="100" height="30" as="geometry"/>
                </mxCell>
                <mxCell id="17" value="要求（挑戦）" style="text;html=1;align=center;verticalAlign=middle;whiteSpace=wrap;rounded=0;" vertex="1" parent="ML3krrQk0YiTmpszw3Px-1">
                    <mxGeometry x="300" y="140" width="80" height="30" as="geometry"/>
                </mxCell>
                <mxCell id="18" value="&lt;div&gt;段階に応じた&lt;/div&gt;要求" style="text;html=1;align=center;verticalAlign=middle;whiteSpace=wrap;rounded=0;" vertex="1" parent="ML3krrQk0YiTmpszw3Px-1">
                    <mxGeometry x="300" y="330" width="80" height="50" as="geometry"/>
                </mxCell>
                <mxCell id="19" value="" style="rounded=0;whiteSpace=wrap;html=1;" vertex="1" parent="ML3krrQk0YiTmpszw3Px-1">
                    <mxGeometry x="720" y="120" width="240" height="160" as="geometry"/>
                </mxCell>
                <mxCell id="21" value="" style="shape=flexArrow;endArrow=classic;html=1;" edge="1" parent="ML3krrQk0YiTmpszw3Px-1">
                    <mxGeometry width="50" height="50" relative="1" as="geometry">
                        <mxPoint x="620" y="199.5" as="sourcePoint"/>
                        <mxPoint x="700" y="199.5" as="targetPoint"/>
                    </mxGeometry>
                </mxCell>
                <mxCell id="22" value="" style="shape=flexArrow;endArrow=classic;html=1;" edge="1" parent="ML3krrQk0YiTmpszw3Px-1">
                    <mxGeometry width="50" height="50" relative="1" as="geometry">
                        <mxPoint x="620" y="399.5" as="sourcePoint"/>
                        <mxPoint x="700" y="399.5" as="targetPoint"/>
                    </mxGeometry>
                </mxCell>
                <mxCell id="23" value="" style="rounded=0;whiteSpace=wrap;html=1;" vertex="1" parent="ML3krrQk0YiTmpszw3Px-1">
                    <mxGeometry x="720" y="320" width="240" height="160" as="geometry"/>
                </mxCell>
                <mxCell id="24" value="応答" style="text;html=1;align=center;verticalAlign=middle;whiteSpace=wrap;rounded=0;" vertex="1" parent="ML3krrQk0YiTmpszw3Px-1">
                    <mxGeometry x="620" y="140" width="80" height="30" as="geometry"/>
                </mxCell>
                <mxCell id="25" value="応答" style="text;html=1;align=center;verticalAlign=middle;whiteSpace=wrap;rounded=0;" vertex="1" parent="ML3krrQk0YiTmpszw3Px-1">
                    <mxGeometry x="620" y="350" width="80" height="30" as="geometry"/>
                </mxCell>
                <mxCell id="26" value="集団の充足" style="text;html=1;align=center;verticalAlign=middle;whiteSpace=wrap;rounded=0;fillColor=#d5e8d4;strokeColor=#82b366;" vertex="1" parent="ML3krrQk0YiTmpszw3Px-1">
                    <mxGeometry x="740" y="130" width="70" height="30" as="geometry"/>
                </mxCell>
                <mxCell id="27" value="個人の充足" style="text;html=1;align=center;verticalAlign=middle;whiteSpace=wrap;rounded=0;fillColor=#d5e8d4;strokeColor=#82b366;" vertex="1" parent="ML3krrQk0YiTmpszw3Px-1">
                    <mxGeometry x="740" y="330" width="70" height="30" as="geometry"/>
                </mxCell>
                <mxCell id="28" value="" style="triangle;whiteSpace=wrap;html=1;rotation=-90;" vertex="1" parent="ML3krrQk0YiTmpszw3Px-1">
                    <mxGeometry x="810" y="340" width="110" height="120" as="geometry"/>
                </mxCell>
                <mxCell id="29" value="" style="triangle;whiteSpace=wrap;html=1;rotation=-90;" vertex="1" parent="ML3krrQk0YiTmpszw3Px-1">
                    <mxGeometry x="810" y="140" width="110" height="120" as="geometry"/>
                </mxCell>
                <mxCell id="32" value="" style="rounded=0;whiteSpace=wrap;html=1;" vertex="1" parent="ML3krrQk0YiTmpszw3Px-1">
                    <mxGeometry x="380" y="600" width="240" height="160" as="geometry"/>
                </mxCell>
                <mxCell id="33" value="" style="shape=flexArrow;endArrow=classic;html=1;" edge="1" parent="ML3krrQk0YiTmpszw3Px-1">
                    <mxGeometry width="50" height="50" relative="1" as="geometry">
                        <mxPoint x="460" y="570" as="sourcePoint"/>
                        <mxPoint x="460" y="510" as="targetPoint"/>
                        <Array as="points">
                            <mxPoint x="460" y="540"/>
                        </Array>
                    </mxGeometry>
                </mxCell>
                <mxCell id="34" value="&lt;div&gt;基本的な&lt;/div&gt;承認" style="text;html=1;align=center;verticalAlign=middle;whiteSpace=wrap;rounded=0;" vertex="1" parent="ML3krrQk0YiTmpszw3Px-1">
                    <mxGeometry x="560" y="510" width="80" height="60" as="geometry"/>
                </mxCell>
                <mxCell id="35" value="" style="shape=flexArrow;endArrow=classic;html=1;" edge="1" parent="ML3krrQk0YiTmpszw3Px-1">
                    <mxGeometry width="50" height="50" relative="1" as="geometry">
                        <mxPoint x="540" y="570" as="sourcePoint"/>
                        <mxPoint x="540" y="510" as="targetPoint"/>
                        <Array as="points">
                            <mxPoint x="540" y="540"/>
                        </Array>
                    </mxGeometry>
                </mxCell>
                <mxCell id="36" value="安全&lt;div&gt;生存の安心&lt;/div&gt;" style="text;html=1;align=center;verticalAlign=middle;whiteSpace=wrap;rounded=0;" vertex="1" parent="ML3krrQk0YiTmpszw3Px-1">
                    <mxGeometry x="350" y="530" width="80" height="30" as="geometry"/>
                </mxCell>
                <mxCell id="37" value="インフラ" style="text;html=1;align=center;verticalAlign=middle;whiteSpace=wrap;rounded=0;fillColor=#d5e8d4;strokeColor=#82b366;" vertex="1" parent="ML3krrQk0YiTmpszw3Px-1">
                    <mxGeometry x="390" y="610" width="70" height="30" as="geometry"/>
                </mxCell>
                <mxCell id="38" value="" style="triangle;whiteSpace=wrap;html=1;rotation=-90;" vertex="1" parent="ML3krrQk0YiTmpszw3Px-1">
                    <mxGeometry x="470" y="620" width="110" height="120" as="geometry"/>
                </mxCell>
            </root>
        </mxGraphModel>
    </diagram>
</mxfile>